<?xml version="1.0" encoding="UTF-8"?>
<svg id="Capa_1" xmlns="http://www.w3.org/2000/svg" version="1.1" viewBox="0 0 222.9 125">
  <!-- Generator: Adobe Illustrator 29.2.0, SVG Export Plug-In . SVG Version: 2.1.0 Build 108)  -->
  <defs>
    <style>
      .st0 {
        fill: #25377d;
      }
    </style>
  </defs>
  <path class="st0" d="M165.6,94.8c-10.1,0-18.2-8.9-18.2-19.8,0-10.9,8.2-19.8,18.2-19.8,6.5,0,12.6,3.8,15.9,10l.2.3c.2.4.3.7.5,1.1h0c0,.3.1.4.2.6.2.4.3.8.4,1.2v.2c.1.1.2.2.2.4.1.4.2.9.3,1.3v.2c0,0,.1.2.1.3.1.5.2.9.2,1.4l-23.5,6.5.4.7c1.7,3.3,4.2,5.4,7.3,5.9.6,0,1.1.1,1.7.1,3.7,0,7.3-2.1,10.2-5.8l4.3,3.1c-2.6,5.8-8.7,11.7-18.3,11.8h-.1ZM164.7,63c-.5,0-1,0-1.5.2-3.4.8-5.2,3.7-4.9,8.2v.8s12.9-3.6,12.9-3.6l-.3-.7c-1.5-3.2-3.6-4.9-6.2-4.9ZM60.5,94.8c-7.2,0-13.1-5.9-13.1-13.1,0-5.2,3.3-9.6,9.1-12.2,2.2-1,5.8-1.6,9.1-1.6.9,0,1.7,0,2.5.1h.8c0,0,0-.7,0-.7-.2-2.6-2.5-4.6-5.2-4.6-1.9,0-3.7,1-4.6,2.6l-6-2.4c2.3-4.6,7.6-7.6,13.4-7.6,8,0,14.6,5.6,14.6,12.4v.3s0,.7,0,.7h0s0,25.4,0,25.4h-11s-.6-2.7-.6-2.7l-.8.7c-2.3,1.8-5.1,2.8-8.1,2.8ZM68.2,74.6c-7.8,0-8.9,4.1-8.9,6.5,0,2.9,1.9,4.7,5,4.7,2.5,0,4.6-2.1,4.6-4.6v-6.6s-.7,0-.7,0ZM188.7,94v-5.5s0-1.4,0-1.4v-24.6s-3.2,0-3.2,0v-6.9s15.3,0,15.3,0v4.1s1.1-1,1.1-1c2.3-2,5.2-3.1,8.2-3.1,1.4,0,2.9.2,4.2.7l-5.8,9.2c-.6-.4-1.3-.7-2-.8-.2,0-.3,0-.5,0-2.4,0-5.2,2-5.2,4.6v17.7s0,1.4,0,1.4v5.5s-12.1,0-12.1,0ZM131.1,94.1v-5.7s0-1.3,0-1.3v-18.7c0-1.6-.9-3.4-3-3.6-.2,0-.5,0-.7,0-1.9,0-3.8.9-5.6,2.6l-.2.2v.4s0,19.2,0,19.2v1.3s0,5.6,0,5.6h-12.1s0-5.6,0-5.6v-1.4s0-18.7,0-18.7c0-1.6-.9-3.4-3-3.6-.2,0-.5,0-.7,0-1.9,0-3.8.9-5.6,2.6l-.2.2v19.6s0,1.3,0,1.3v5.6s-12.1,0-12.1,0v-31.6s-3.2,0-3.2,0v-6.9s15.3,0,15.3,0v4.1s1.1-1,1.1-1c2.3-2,5.2-3.1,8.2-3.1,4.1,0,8,2,10.3,5.5l.5.8.5-.8c2.3-3.4,6.2-5.5,10.3-5.5,6.8,0,12.4,5.6,12.4,12.4v19.2s0,1.3,0,1.3v5.7s-12.1,0-12.1,0ZM8.6,94v-6.9s0,0,0,0v-38.6s0,0,0,0v-6.9s10.4,0,10.4,0h0s8.1,0,8.1,0c11.3,0,20.4,8.7,20.4,19.5,0,10.7-8.8,19.5-19.5,19.5-2.4,0-4.6-.4-6.4-1.1l-.9-.4v8.1s0,0,0,0v6.9s-12.2,0-12.2,0ZM20.8,70.9l.2.2c1.1,1.1,2.5,1.9,3.6,2,.4,0,.7,0,1,0,3.2,0,5.5-1.6,6.8-4.7,1-2.3,1.2-5,1.2-6.8,0-10.9-8.5-12.7-12.2-13h-.7c0,0,0,22.3,0,22.3Z"/>
  <g>
    <path class="st0" d="M117.2,28.7"/>
    <path class="st0" d="M116.8,28.7"/>
    <path class="st0" d="M162.5,10c-1.7,9.8-29.4,25.4-66.4,37.3.1-.6.2-1.1.2-1.7.5-9.6-14-18.8-36-24.4,8.8,1.6,18.5,2.8,28.7,3.3,35.5,1.9,65.6-4.4,73.5-14.5Z"/>
    <path class="st0" d="M96.3,45.6c0,.6-.1,1.1-.2,1.7,12.4-4,23.7-8.4,33.4-12.9-13.4-.3-30.2-6.7-58-11.5-3.9-.5-7.6-1.1-11.2-1.8,22,5.6,36.5,14.8,36,24.4Z"/>
    <path class="st0" d="M129.9,22.8c-11.8,1.8-25.9,2.5-40.9,1.7-8.3-.4-16.2-1.3-23.6-2.5,14.7,2.7,54.4,11.6,30.7,25.2,0,0,27.8-9.5,33.8-24.5Z"/>
    <path class="st0" d="M96.1,47.3s14.9-5.1,25.2-13.7c-12.1-1.9-27.4-6.8-49.9-10.7-2-.3-4-.5-6-.9,14.7,2.7,54.4,11.6,30.7,25.2Z"/>
  </g>
  <g>
    <path class="st0" d="M21.4,111.8l1.6.5c-.2.9-.7,1.6-1.2,2-.6.4-1.3.7-2.2.7s-2-.4-2.7-1.1c-.7-.8-1-1.8-1-3.1s.4-2.5,1.1-3.2c.7-.8,1.6-1.2,2.8-1.2s1.8.3,2.4.9c.4.4.7.9.8,1.5l-1.6.4c0-.4-.3-.8-.6-1-.3-.3-.7-.4-1.1-.4s-1.1.2-1.5.7c-.4.4-.6,1.2-.6,2.2s.2,1.8.6,2.3c.4.4.9.7,1.4.7s.8-.1,1.1-.4c.3-.3.5-.7.7-1.3Z"/>
    <path class="st0" d="M25.1,110.7c0-.9.1-1.6.4-2.1.2-.4.4-.8.8-1.1.3-.3.7-.6,1.1-.8.5-.2,1.1-.3,1.8-.3,1.2,0,2.2.4,2.9,1.1.7.8,1.1,1.8,1.1,3.2s-.4,2.4-1.1,3.2c-.7.8-1.7,1.1-2.9,1.1s-2.2-.4-2.9-1.1c-.7-.8-1.1-1.8-1.1-3.1ZM26.8,110.7c0,.9.2,1.7.6,2.2.4.5,1,.7,1.6.7s1.2-.2,1.6-.7c.4-.5.6-1.2.6-2.2s-.2-1.7-.6-2.1c-.4-.5-1-.7-1.6-.7s-1.2.2-1.6.7c-.4.5-.6,1.2-.6,2.2Z"/>
    <path class="st0" d="M35.4,114.9v-8.4h3.5c.9,0,1.5,0,1.9.2.4.2.7.4,1,.8.2.4.4.8.4,1.3s-.2,1.1-.5,1.6c-.4.4-.9.7-1.6.8.4.2.7.4.9.7.2.3.5.7.9,1.4l1,1.6h-2l-1.2-1.8c-.4-.7-.7-1.1-.9-1.2-.2-.2-.3-.3-.5-.3-.2,0-.5,0-.8,0h-.3v3.5h-1.7ZM37.1,110h1.2c.8,0,1.3,0,1.5-.1.2,0,.4-.2.5-.4.1-.2.2-.4.2-.6s0-.5-.2-.7c-.1-.2-.4-.3-.6-.3-.1,0-.5,0-1.2,0h-1.3v2.1Z"/>
    <path class="st0" d="M44.8,114.9v-8.4h2.6c1,0,1.7,0,2,.1.5.1.9.4,1.2.8s.5,1,.5,1.6,0,.9-.3,1.3c-.2.3-.4.6-.7.8-.3.2-.6.3-.9.4-.4,0-1,.1-1.7.1h-1.1v3.2h-1.7ZM46.4,107.9v2.4h.9c.7,0,1.1,0,1.3-.1.2,0,.4-.2.5-.4.1-.2.2-.4.2-.6s0-.6-.3-.8c-.2-.2-.4-.3-.7-.4-.2,0-.6,0-1.2,0h-.8Z"/>
    <path class="st0" d="M53.1,110.7c0-.9.1-1.6.4-2.1.2-.4.4-.8.8-1.1.3-.3.7-.6,1.1-.8.5-.2,1.1-.3,1.8-.3,1.2,0,2.2.4,2.9,1.1.7.8,1.1,1.8,1.1,3.2s-.4,2.4-1.1,3.2c-.7.8-1.7,1.1-2.9,1.1s-2.2-.4-2.9-1.1c-.7-.8-1.1-1.8-1.1-3.1ZM54.8,110.7c0,.9.2,1.7.6,2.2.4.5,1,.7,1.6.7s1.2-.2,1.6-.7c.4-.5.6-1.2.6-2.2s-.2-1.7-.6-2.1c-.4-.5-1-.7-1.6-.7s-1.2.2-1.6.7c-.4.5-.6,1.2-.6,2.2Z"/>
    <path class="st0" d="M63.4,114.9v-8.4h3.5c.9,0,1.5,0,1.9.2.4.2.7.4,1,.8.2.4.4.8.4,1.3s-.2,1.1-.5,1.6c-.4.4-.9.7-1.6.8.4.2.7.4.9.7.2.3.5.7.9,1.4l1,1.6h-2l-1.2-1.8c-.4-.7-.7-1.1-.9-1.2-.2-.2-.3-.3-.5-.3-.2,0-.5,0-.8,0h-.3v3.5h-1.7ZM65.1,110h1.2c.8,0,1.3,0,1.5-.1.2,0,.4-.2.5-.4.1-.2.2-.4.2-.6s0-.5-.2-.7c-.1-.2-.4-.3-.6-.3-.1,0-.5,0-1.2,0h-1.3v2.1Z"/>
    <path class="st0" d="M80.1,114.9h-1.8l-.7-1.9h-3.3l-.7,1.9h-1.8l3.2-8.4h1.7l3.3,8.4ZM77.1,111.6l-1.1-3.1-1.1,3.1h2.2Z"/>
    <path class="st0" d="M87.3,111.8l1.6.5c-.2.9-.7,1.6-1.2,2-.6.4-1.3.7-2.2.7s-2-.4-2.7-1.1c-.7-.8-1-1.8-1-3.1s.4-2.5,1.1-3.2c.7-.8,1.6-1.2,2.8-1.2s1.8.3,2.4.9c.4.4.7.9.8,1.5l-1.6.4c0-.4-.3-.8-.6-1-.3-.3-.7-.4-1.1-.4s-1.1.2-1.5.7c-.4.4-.6,1.2-.6,2.2s.2,1.8.6,2.3c.4.4.9.7,1.5.7s.8-.1,1.1-.4c.3-.3.5-.7.7-1.3Z"/>
    <path class="st0" d="M91.4,114.9v-8.4h1.7v8.4h-1.7Z"/>
    <path class="st0" d="M95.4,110.7c0-.9.1-1.6.4-2.1.2-.4.4-.8.8-1.1.3-.3.7-.6,1.1-.8.5-.2,1.1-.3,1.8-.3,1.2,0,2.2.4,2.9,1.1.7.8,1.1,1.8,1.1,3.2s-.4,2.4-1.1,3.2c-.7.8-1.7,1.1-2.9,1.1s-2.2-.4-2.9-1.1c-.7-.8-1.1-1.8-1.1-3.1ZM97.1,110.7c0,.9.2,1.7.6,2.2.4.5,1,.7,1.6.7s1.2-.2,1.6-.7c.4-.5.6-1.2.6-2.2s-.2-1.7-.6-2.1c-.4-.5-1-.7-1.6-.7s-1.2.2-1.6.7c-.4.5-.6,1.2-.6,2.2ZM98.3,106l.8-1.7h1.8l-1.5,1.7h-1Z"/>
    <path class="st0" d="M105.7,114.9v-8.4h1.6l3.3,5.6v-5.6h1.5v8.4h-1.7l-3.3-5.4v5.4h-1.5Z"/>
    <path class="st0" d="M123.5,114.9v-8.4h6.1v1.4h-4.4v1.9h4.1v1.4h-4.1v2.3h4.6v1.4h-6.2Z"/>
    <path class="st0" d="M132.2,106.5h3c.7,0,1.2,0,1.6.2.5.1.9.4,1.2.8.3.4.6.8.8,1.4.2.5.3,1.2.3,2s0,1.3-.3,1.8c-.2.6-.5,1.1-.9,1.5-.3.3-.7.5-1.2.7-.4.1-.9.2-1.5.2h-3.1v-8.4ZM133.9,107.9v5.5h1.2c.5,0,.8,0,1,0,.3,0,.5-.2.7-.3.2-.2.3-.4.4-.8.1-.4.2-.9.2-1.5s0-1.1-.2-1.5c-.1-.3-.3-.6-.5-.8-.2-.2-.5-.3-.8-.4-.2,0-.7,0-1.4,0h-.7Z"/>
    <path class="st0" d="M141.5,106.5h1.7v4.5c0,.7,0,1.2,0,1.4,0,.3.2.6.5.8.3.2.6.3,1.1.3s.8,0,1.1-.3c.2-.2.4-.4.4-.7,0-.3,0-.8,0-1.4v-4.6h1.7v4.4c0,1,0,1.7-.1,2.1,0,.4-.3.8-.5,1-.2.3-.6.5-1,.7-.4.2-.9.3-1.6.3s-1.4,0-1.8-.3c-.4-.2-.7-.4-1-.7s-.4-.6-.5-.9c-.1-.5-.2-1.2-.2-2.1v-4.5Z"/>
    <path class="st0" d="M156.1,111.8l1.6.5c-.2.9-.7,1.6-1.2,2-.6.4-1.3.7-2.2.7s-2-.4-2.7-1.1c-.7-.8-1-1.8-1-3.1s.4-2.5,1.1-3.2c.7-.8,1.6-1.2,2.8-1.2s1.8.3,2.4.9c.4.4.7.9.8,1.5l-1.6.4c0-.4-.3-.8-.6-1-.3-.3-.7-.4-1.1-.4s-1.1.2-1.5.7c-.4.4-.6,1.2-.6,2.2s.2,1.8.6,2.3c.4.4.9.7,1.5.7s.8-.1,1.1-.4c.3-.3.5-.7.7-1.3Z"/>
    <path class="st0" d="M167.6,114.9h-1.8l-.7-1.9h-3.3l-.7,1.9h-1.8l3.2-8.4h1.7l3.3,8.4ZM164.6,111.6l-1.1-3.1-1.1,3.1h2.2Z"/>
    <path class="st0" d="M170.5,114.9v-6.9h-2.4v-1.4h6.5v1.4h-2.4v6.9h-1.7Z"/>
    <path class="st0" d="M176.7,114.9v-8.4h1.7v8.4h-1.7Z"/>
    <path class="st0" d="M183.1,114.9l-2.9-8.4h1.8l2.1,6.2,2-6.2h1.8l-2.9,8.4h-1.8Z"/>
    <path class="st0" d="M196.3,114.9h-1.8l-.7-1.9h-3.3l-.7,1.9h-1.8l3.2-8.4h1.7l3.3,8.4ZM193.2,111.6l-1.1-3.1-1.1,3.1h2.2Z"/>
  </g>
</svg>